<svg id="cocore-icon" data-name="cocore-icon" xmlns="http://www.w3.org/2000/svg" baseProfile="tiny" version="1.2" viewBox="0 0 512 512">
  <path d="M315.5,33.9C192.8,1,66.8,73.8,33.9,196.5,1,319.2,73.8,445.2,196.5,478.1c122.7,32.9,248.7-39.9,281.6-162.6,32.9-122.7-39.9-248.7-162.6-281.6ZM224.8,372.6c-92-24.7-146.6-119.2-121.9-211.2C127.5,69.4,222,14.8,314,39.4c92,24.7,146.6,119.2,121.9,211.2-24.7,92-119.2,146.6-211.2,121.9Z" fill="#aaa"/>
  <path d="M285.6,145.6c-61.3-16.4-124.4,20-140.8,81.3-16.4,61.3,20,124.4,81.3,140.8,61.3,16.4,124.4-20,140.8-81.3,16.4-61.3-20-124.4-81.3-140.8Z" fill="#aaa"/>
</svg>